<?xml version="1.0" standalone="no"?>
<!DOCTYPE svg PUBLIC "-//W3C//DTD SVG 20010904//EN"
 "http://www.w3.org/TR/2001/REC-SVG-20010904/DTD/svg10.dtd">
<svg version="1.0" xmlns="http://www.w3.org/2000/svg"
 width="1517.000000pt" height="1517.000000pt" viewBox="0 0 1517.000000 1517.000000"
 preserveAspectRatio="xMidYMid meet">
<metadata>
Created by potrace 1.14, written by Peter Selinger 2001-2017
</metadata>
<g transform="translate(0.000000,1517.000000) scale(0.100000,-0.100000)"
fill="#000000" stroke="none">
<path d="M6119 15168 c-1 -2 -3 -327 -4 -723 -1 -396 -3 -722 -4 -725 0 -3
-327 -5 -726 -5 l-725 0 0 -727 c0 -686 -1 -728 -17 -729 -10 0 -338 -1 -729
-1 l-711 -1 0 -6123 c0 -5580 2 -6124 16 -6125 21 -1 5803 -1 5817 0 8 1 11
202 12 722 0 396 2 723 6 726 3 3 329 5 726 5 l720 -1 0 730 0 729 728 0 729
0 -1 6122 -1 6123 -2917 3 c-1605 1 -2919 1 -2919 0z"/>
</g>
</svg>
