<?xml version="1.0" encoding="UTF-8"?><svg id="a" xmlns="http://www.w3.org/2000/svg" viewBox="0 0 250 250"><defs><style>.b{fill:#ffe710;}</style></defs><path class="b" d="M124.99,.15C55.97,.15,0,56.12,0,125.16,0,180.39,35.82,227.23,85.49,243.76c6.25,1.15,8.53-2.71,8.53-6.02,0-2.97-.11-10.83-.16-21.26-34.77,7.55-42.11-16.76-42.11-16.76-5.68-14.44-13.88-18.28-13.88-18.28-11.35-7.75,.86-7.6,.86-7.6,12.55,.88,19.15,12.88,19.15,12.88,11.15,19.1,29.26,13.58,36.37,10.38,1.14-8.07,4.37-13.58,7.94-16.71-27.76-3.15-56.94-13.87-56.94-61.77,0-13.65,4.87-24.81,12.87-33.55-1.29-3.16-5.58-15.87,1.22-33.08,0,0,10.5-3.35,34.37,12.82,9.97-2.77,20.66-4.16,31.3-4.21,10.61,.05,21.31,1.44,31.29,4.21,23.86-16.17,34.34-12.82,34.34-12.82,6.82,17.21,2.53,29.92,1.25,33.08,8.01,8.74,12.85,19.9,12.85,33.55,0,48.02-29.22,58.58-57.07,61.67,4.48,3.86,8.48,11.49,8.48,23.16,0,16.71-.15,30.19-.15,34.29,0,3.34,2.25,7.23,8.6,6.01,49.62-16.56,85.4-63.38,85.4-118.6C250,56.12,194.03,.15,124.99,.15"/></svg>