<?xml version="1.0" encoding="UTF-8"?><svg id="a" xmlns="http://www.w3.org/2000/svg" viewBox="0 0 250 250"><defs><style>.b{fill:#ffe710;}</style></defs><polygon class="b" points="180.08 81.09 69.92 81.09 125 124.82 180.08 81.09"/><g><path class="b" d="M205.55,166.12c0,8.67-7.05,15.73-15.73,15.73H60.18c-8.67,0-15.73-7.06-15.73-15.73V83.89c0-8.67,7.05-15.73,15.73-15.73H189.82c8.67,0,15.73,7.06,15.73,15.73v82.23ZM125,0C56.07,0,0,56.08,0,125s56.07,125,125,125,125-56.08,125-125S193.93,0,125,0"/><path class="b" d="M125,139.55c-1.42,0-2.85-.47-4.02-1.41l-63.6-50.5v78.48c0,1.53,1.25,2.79,2.8,2.79H189.82c1.55,0,2.8-1.26,2.8-2.79V87.65l-63.6,50.5c-1.17,.94-2.6,1.41-4.02,1.41"/></g></svg>